<svg xmlns="http://www.w3.org/2000/svg" viewBox="0 0 128 128" width="128" height="128">
  <path fill="currentColor" d="M57,0h15v1h-15z M51,1h27v1h-27z M47,2h35v1h-35z M43,3h42v1h-42z M41,4h46v1h-46z M38,5h52v1h-52z M36,6h56v1h-56z M34,7h60v1h-60z M32,8h10v1h-10z M43,8h53v1h-53z M31,9h9v1h-9z M42,9h55v1h-55z M29,10h9v1h-9z M41,10h58v1h-58z M28,11h8v1h-8z M40,11h60v1h-60z M26,12h8v1h-8z M39,12h63v1h-63z M25,13h7v1h-7z M39,13h29v1h-29z M70,13h33v1h-33z M24,14h7v1h-7z M38,14h29v1h-29z M69,14h35v1h-35z M22,15h7v1h-7z M37,15h29v1h-29z M69,15h37v1h-37z M21,16h7v1h-7z M37,16h28v1h-28z M69,16h38v1h-38z M20,17h7v1h-7z M36,17h28v1h-28z M69,17h39v1h-39z M19,18h6v1h-6z M36,18h27v1h-27z M69,18h40v1h-40z M18,19h6v1h-6z M35,19h27v1h-27z M69,19h41v1h-41z M17,20h6v1h-6z M35,20h27v1h-27z M69,20h42v1h-42z M16,21h6v1h-6z M34,21h27v1h-27z M69,21h43v1h-43z M15,22h6v1h-6z M34,22h27v1h-27z M69,22h44v1h-44z M15,23h5v1h-5z M34,23h26v1h-26z M69,23h44v1h-44z M14,24h5v1h-5z M33,24h27v1h-27z M69,24h45v1h-45z M13,25h5v1h-5z M33,25h26v1h-26z M69,25h46v1h-46z M12,26h6v1h-6z M33,26h26v1h-26z M70,26h46v1h-46z M12,27h5v1h-5z M33,27h25v1h-25z M70,27h46v1h-46z M11,28h5v1h-5z M33,28h25v1h-25z M70,28h47v1h-47z M10,29h5v1h-5z M32,29h26v1h-26z M71,29h47v1h-47z M10,30h5v1h-5z M32,30h21v1h-21z M54,30h4v1h-4z M72,30h46v1h-46z M9,31h5v1h-5z M32,31h20v1h-20z M54,31h4v1h-4z M72,31h47v1h-47z M8,32h5v1h-5z M32,32h20v1h-20z M55,32h3v1h-3z M73,32h47v1h-47z M8,33h5v1h-5z M32,33h20v1h-20z M55,33h3v1h-3z M74,33h46v1h-46z M7,34h5v1h-5z M32,34h20v1h-20z M56,34h2v1h-2z M75,34h46v1h-46z M7,35h5v1h-5z M32,35h20v1h-20z M57,35h1v1h-1z M66,35h1v1h-1z M76,35h45v1h-45z M6,36h5v1h-5z M32,36h20v1h-20z M65,36h2v1h-2z M77,36h45v1h-45z M6,37h4v1h-4z M32,37h20v1h-20z M64,37h3v1h-3z M77,37h45v1h-45z M5,38h5v1h-5z M33,38h19v1h-19z M63,38h4v1h-4z M78,38h45v1h-45z M5,39h5v1h-5z M33,39h19v1h-19z M63,39h4v1h-4z M78,39h45v1h-45z M4,40h5v1h-5z M33,40h19v1h-19z M62,40h5v1h-5z M78,40h45v1h-45z M4,41h5v1h-5z M33,41h19v1h-19z M62,41h6v1h-6z M78,41h46v1h-46z M4,42h4v1h-4z M34,42h19v1h-19z M62,42h6v1h-6z M78,42h46v1h-46z M3,43h5v1h-5z M34,43h19v1h-19z M59,43h2v1h-2z M62,43h7v1h-7z M78,43h47v1h-47z M3,44h5v1h-5z M34,44h20v1h-20z M59,44h2v1h-2z M62,44h8v1h-8z M78,44h47v1h-47z M3,45h4v1h-4z M35,45h19v1h-19z M59,45h11v1h-11z M77,45h48v1h-48z M2,46h5v1h-5z M35,46h20v1h-20z M59,46h12v1h-12z M77,46h49v1h-49z M2,47h5v1h-5z M35,47h21v1h-21z M59,47h12v1h-12z M76,47h50v1h-50z M2,48h4v1h-4z M36,48h20v1h-20z M59,48h12v1h-12z M76,48h50v1h-50z M2,49h4v1h-4z M37,49h21v1h-21z M60,49h11v1h-11z M75,49h51v1h-51z M1,50h5v1h-5z M37,50h22v1h-22z M61,50h9v1h-9z M73,50h54v1h-54z M1,51h5v1h-5z M38,51h32v1h-32z M71,51h56v1h-56z M1,52h4v1h-4z M39,52h88v1h-88z M1,53h4v1h-4z M39,53h88v1h-88z M1,54h4v1h-4z M40,54h87v1h-87z M1,55h4v1h-4z M41,55h86v1h-86z M0,56h5v1h-5z M42,56h86v1h-86z M0,57h5v1h-5z M43,57h85v1h-85z M0,58h5v1h-5z M44,58h84v1h-84z M0,59h4v1h-4z M45,59h83v1h-83z M0,60h4v1h-4z M47,60h81v1h-81z M0,61h4v1h-4z M48,61h80v1h-80z M0,62h4v1h-4z M50,62h78v1h-78z M0,63h4v1h-4z M52,63h76v1h-76z M0,64h4v1h-4z M55,64h73v1h-73z M0,65h4v1h-4z M59,65h69v1h-69z M0,66h4v1h-4z M68,66h60v1h-60z M0,67h4v1h-4z M73,67h55v1h-55z M0,68h4v1h-4z M75,68h53v1h-53z M0,69h5v1h-5z M77,69h51v1h-51z M0,70h5v1h-5z M79,70h49v1h-49z M0,71h5v1h-5z M81,71h47v1h-47z M1,72h4v1h-4z M82,72h45v1h-45z M1,73h4v1h-4z M83,73h44v1h-44z M1,74h4v1h-4z M84,74h43v1h-43z M1,75h4v1h-4z M85,75h42v1h-42z M1,76h5v1h-5z M64,76h2v1h-2z M86,76h41v1h-41z M1,77h5v1h-5z M64,77h2v1h-2z M87,77h40v1h-40z M2,78h4v1h-4z M63,78h4v1h-4z M88,78h38v1h-38z M2,79h4v1h-4z M62,79h6v1h-6z M88,79h38v1h-38z M2,80h5v1h-5z M62,80h6v1h-6z M89,80h37v1h-37z M2,81h5v1h-5z M61,81h8v1h-8z M89,81h37v1h-37z M3,82h4v1h-4z M60,82h10v1h-10z M90,82h35v1h-35z M3,83h5v1h-5z M60,83h10v1h-10z M90,83h35v1h-35z M3,84h5v1h-5z M59,84h12v1h-12z M91,84h34v1h-34z M4,85h4v1h-4z M58,85h14v1h-14z M91,85h33v1h-33z M4,86h5v1h-5z M58,86h14v1h-14z M91,86h33v1h-33z M4,87h5v1h-5z M57,87h16v1h-16z M92,87h31v1h-31z M5,88h5v1h-5z M57,88h16v1h-16z M92,88h31v1h-31z M5,89h5v1h-5z M56,89h18v1h-18z M92,89h31v1h-31z M6,90h4v1h-4z M56,90h19v1h-19z M92,90h30v1h-30z M6,91h5v1h-5z M55,91h20v1h-20z M93,91h29v1h-29z M7,92h4v1h-4z M54,92h22v1h-22z M93,92h28v1h-28z M7,93h5v1h-5z M54,93h22v1h-22z M93,93h28v1h-28z M8,94h5v1h-5z M53,94h24v1h-24z M93,94h27v1h-27z M8,95h5v1h-5z M53,95h24v1h-24z M93,95h27v1h-27z M9,96h5v1h-5z M53,96h24v1h-24z M93,96h26v1h-26z M9,97h6v1h-6z M52,97h26v1h-26z M93,97h25v1h-25z M10,98h5v1h-5z M52,98h26v1h-26z M93,98h25v1h-25z M11,99h5v1h-5z M52,99h26v1h-26z M92,99h25v1h-25z M11,100h6v1h-6z M51,100h28v1h-28z M92,100h24v1h-24z M12,101h5v1h-5z M51,101h28v1h-28z M92,101h24v1h-24z M13,102h5v1h-5z M51,102h28v1h-28z M92,102h23v1h-23z M14,103h5v1h-5z M51,103h28v1h-28z M91,103h23v1h-23z M14,104h6v1h-6z M51,104h28v1h-28z M91,104h22v1h-22z M15,105h6v1h-6z M52,105h26v1h-26z M91,105h22v1h-22z M16,106h6v1h-6z M52,106h26v1h-26z M90,106h22v1h-22z M17,107h6v1h-6z M52,107h26v1h-26z M90,107h21v1h-21z M18,108h6v1h-6z M53,108h24v1h-24z M89,108h21v1h-21z M19,109h6v1h-6z M53,109h24v1h-24z M89,109h20v1h-20z M20,110h6v1h-6z M54,110h22v1h-22z M88,110h20v1h-20z M21,111h7v1h-7z M55,111h20v1h-20z M88,111h19v1h-19z M22,112h7v1h-7z M56,112h18v1h-18z M87,112h19v1h-19z M23,113h8v1h-8z M57,113h16v1h-16z M86,113h18v1h-18z M25,114h7v1h-7z M59,114h12v1h-12z M85,114h18v1h-18z M26,115h8v1h-8z M61,115h8v1h-8z M84,115h18v1h-18z M27,116h8v1h-8z M83,116h17v1h-17z M29,117h8v1h-8z M82,117h17v1h-17z M30,118h10v1h-10z M81,118h16v1h-16z M32,119h10v1h-10z M79,119h17v1h-17z M34,120h11v1h-11z M77,120h17v1h-17z M36,121h12v1h-12z M75,121h17v1h-17z M38,122h14v1h-14z M72,122h18v1h-18z M41,123h18v1h-18z M67,123h20v1h-20z M43,124h42v1h-42z M46,125h36v1h-36z M50,126h27v1h-27z M56,127h16v1h-16z"/>
</svg>